<svg xmlns="http://www.w3.org/2000/svg" width="1280" height="900" viewBox="0 0 1280 900" role="img" aria-label="OpenFNIRS ST-LINK Adapter Source-Spec Footprint Map">
<style>text{font-family:Arial,Helvetica,sans-serif} .small{font-size:13px;fill:#334155}.tiny{font-size:11px;fill:#475569}.label{font-size:12px;font-weight:700;fill:#0f172a}.title{font-size:28px;font-weight:700;fill:#111827}.sub{font-size:14px;fill:#334155}.box{fill:#f8fafc;stroke:#94a3b8;stroke-width:1.2}.foot{font-size:12px;fill:#334155}</style>
<rect width="1280" height="900" fill="#ffffff"/>
<text x="40" y="44" class="title">OpenFNIRS ST-LINK Adapter Source-Spec Footprint Map</text>
<text x="40" y="70" class="sub">tonykim07/fNIRS hardware/STLINK_Breakout/STLINK_Breakout-PcbDoc.kicad_pcb</text>
<rect x="40" y="105" width="860" height="740" rx="8" class="box"/>
<rect x="50.0" y="470.0" width="820.0" height="0.0" rx="10" fill="#ecfdf5" stroke="#166534" stroke-width="2"/>
<text x="58.0" y="492.0" class="small">KiCad footprint-coordinate envelope</text>
<line x1="214.0" y1="470.0" x2="214.0" y2="470.0" stroke="#cbd5e1" stroke-width="0.7"/>
<line x1="50.0" y1="470.0" x2="870.0" y2="470.0" stroke="#cbd5e1" stroke-width="0.7"/>
<line x1="378.0" y1="470.0" x2="378.0" y2="470.0" stroke="#cbd5e1" stroke-width="0.7"/>
<line x1="50.0" y1="470.0" x2="870.0" y2="470.0" stroke="#cbd5e1" stroke-width="0.7"/>
<line x1="542.0" y1="470.0" x2="542.0" y2="470.0" stroke="#cbd5e1" stroke-width="0.7"/>
<line x1="50.0" y1="470.0" x2="870.0" y2="470.0" stroke="#cbd5e1" stroke-width="0.7"/>
<line x1="706.0" y1="470.0" x2="706.0" y2="470.0" stroke="#cbd5e1" stroke-width="0.7"/>
<line x1="50.0" y1="470.0" x2="870.0" y2="470.0" stroke="#cbd5e1" stroke-width="0.7"/>
<circle cx="50.0" cy="470.0" r="6" fill="#0b6bcb" stroke="#fff" stroke-width="1.6"><title>J1 J1 at 4.270,-10.000</title></circle>
<text x="60.0" y="462.0" class="label">J1 J1</text>
<circle cx="870.0" cy="470.0" r="6" fill="#0b6bcb" stroke="#fff" stroke-width="1.6"><title>J2 J2 at 18.000,-10.000</title></circle>
<text x="880.0" y="462.0" class="label">J2 J2</text>
<rect x="930" y="105" width="310" height="740" rx="8" fill="#f8fafc" stroke="#94a3b8"/>
<text x="950" y="132" class="label">Spec-derived rows</text>
<text x="950" y="156" class="tiny">J1 (4.3,-10.0) J1</text>
<text x="950" y="171" class="tiny">J2 (18.0,-10.0) J2</text>
<text x="950" y="790" class="label">Notes</text>
<text x="950" y="808" class="tiny">J1 = HTSW-107-07-G-D through-hole header.</text>
<text x="950" y="823" class="tiny">J2 = FTSH-107-01-L-DV-K SMD header.</text>
<text x="40" y="875" class="foot">Generated from original spec files: tonykim07/fNIRS hardware/STLINK_Breakout/STLINK_Breakout-PcbDoc.kicad_pcb. This is not a photo-invented placement map; current photos remain incoming-condition evidence.</text>
</svg>
