<svg xmlns="http://www.w3.org/2000/svg" width="1280" height="900" viewBox="0 0 1280 900" role="img" aria-label="Uncut Gem Main PCB Source-Spec Footprint Map">
<style>text{font-family:Arial,Helvetica,sans-serif} .small{font-size:13px;fill:#334155}.tiny{font-size:11px;fill:#475569}.label{font-size:12px;font-weight:700;fill:#0f172a}.title{font-size:28px;font-weight:700;fill:#111827}.sub{font-size:14px;fill:#334155}.box{fill:#f8fafc;stroke:#94a3b8;stroke-width:1.2}.foot{font-size:12px;fill:#334155}</style>
<rect width="1280" height="900" fill="#ffffff"/>
<text x="40" y="44" class="title">Uncut Gem Main PCB Source-Spec Footprint Map</text>
<text x="40" y="70" class="sub">plurigrid/UncutGem hardware/PCB/Uncut Gem.kicad_pcb + Uncut Gem-BOM.csv</text>
<rect x="40" y="105" width="860" height="740" rx="8" class="box"/>
<rect x="67.3" y="120.0" width="785.4" height="700.0" rx="10" fill="#ecfdf5" stroke="#166534" stroke-width="2"/>
<text x="75.3" y="142.0" class="small">KiCad footprint-coordinate envelope</text>
<line x1="224.4" y1="120.0" x2="224.4" y2="820.0" stroke="#cbd5e1" stroke-width="0.7"/>
<line x1="67.3" y1="260.0" x2="852.7" y2="260.0" stroke="#cbd5e1" stroke-width="0.7"/>
<line x1="381.5" y1="120.0" x2="381.5" y2="820.0" stroke="#cbd5e1" stroke-width="0.7"/>
<line x1="67.3" y1="400.0" x2="852.7" y2="400.0" stroke="#cbd5e1" stroke-width="0.7"/>
<line x1="538.5" y1="120.0" x2="538.5" y2="820.0" stroke="#cbd5e1" stroke-width="0.7"/>
<line x1="67.3" y1="540.0" x2="852.7" y2="540.0" stroke="#cbd5e1" stroke-width="0.7"/>
<line x1="695.6" y1="120.0" x2="695.6" y2="820.0" stroke="#cbd5e1" stroke-width="0.7"/>
<line x1="67.3" y1="680.0" x2="852.7" y2="680.0" stroke="#cbd5e1" stroke-width="0.7"/>
<circle cx="754.8" cy="120.0" r="6" fill="#dc2626" stroke="#fff" stroke-width="1.6"><title>J4 RFOUT_DIAMOND at 155.641,73.620</title></circle>
<text x="764.8" y="112.0" class="label">J4 RFOUT_DIAMOND</text>
<circle cx="338.4" cy="152.8" r="6" fill="#b45309" stroke="#fff" stroke-width="1.6"><title>5V_SUPP1 Conn_02x03_Odd_Even at 118.460,76.550</title></circle>
<text x="348.4" y="144.8" class="label">5V_SUPP1 Conn_02x03_Odd_Even</text>
<circle cx="623.3" cy="164.2" r="6" fill="#dc2626" stroke="#fff" stroke-width="1.6"><title>U3 GALI-84 at 143.900,77.562</title></circle>
<text x="633.3" y="156.2" class="label">U3 GALI-84</text>
<circle cx="710.4" cy="174.1" r="6" fill="#dc2626" stroke="#fff" stroke-width="1.6"><title>D3 D_Small at 151.675,78.450</title></circle>
<text x="720.4" y="166.1" class="label">D3 D_Small</text>
<circle cx="67.3" cy="181.3" r="6" fill="#16a34a" stroke="#fff" stroke-width="1.6"><title>D4 BPW34 at 94.250,79.090</title></circle>
<text x="77.3" y="173.3" class="label">D4 BPW34</text>
<circle cx="90.3" cy="243.0" r="6" fill="#dc2626" stroke="#fff" stroke-width="1.6"><title>J6 ADC_SIGNAL at 96.310,84.600</title></circle>
<text x="100.3" y="235.0" class="label">J6 ADC_SIGNAL</text>
<circle cx="710.9" cy="243.5" r="6" fill="#dc2626" stroke="#fff" stroke-width="1.6"><title>D2 D_Small at 151.725,84.650</title></circle>
<text x="720.9" y="235.5" class="label">D2 D_Small</text>
<circle cx="392.7" cy="251.4" r="6" fill="#ca8a04" stroke="#fff" stroke-width="1.6"><title>OLED1 OLED Screen Interface at 123.310,85.350</title></circle>
<text x="402.7" y="243.4" class="label">OLED1 OLED Screen Interface</text>
<circle cx="790.2" cy="253.3" r="6" fill="#dc2626" stroke="#fff" stroke-width="1.6"><title>R7 50 at 158.800,85.525</title></circle>
<text x="800.2" y="245.3" class="label">R7 50R</text>
<circle cx="623.3" cy="259.3" r="6" fill="#dc2626" stroke="#fff" stroke-width="1.6"><title>U2 GALI-84 at 143.900,86.062</title></circle>
<text x="633.3" y="251.3" class="label">U2 GALI-84</text>
<circle cx="852.7" cy="275.5" r="6" fill="#dc2626" stroke="#fff" stroke-width="1.6"><title>J3 RFOUT_A- at 164.385,87.507</title></circle>
<text x="862.7" y="267.5" class="label">J3 RFOUT_A-</text>
<circle cx="244.2" cy="332.6" r="6" fill="#16a34a" stroke="#fff" stroke-width="1.6"><title>TP1 TestPoint_Probe at 110.050,92.600</title></circle>
<text x="254.2" y="324.6" class="label">TP1 TestPoint_Probe</text>
<circle cx="80.7" cy="333.1" r="6" fill="#16a34a" stroke="#fff" stroke-width="1.6"><title>C35 100nF at 95.450,92.650</title></circle>
<text x="90.7" y="325.1" class="label">C35 104</text>
<circle cx="281.2" cy="407.0" r="6" fill="#ca8a04" stroke="#fff" stroke-width="1.6"><title>LED1 LED at 113.350,99.250</title></circle>
<text x="291.2" y="399.0" class="label">LED1 LED</text>
<circle cx="852.7" cy="423.2" r="6" fill="#dc2626" stroke="#fff" stroke-width="1.6"><title>J2 RFOUT_A+ at 164.385,100.692</title></circle>
<text x="862.7" y="415.2" class="label">J2 RFOUT_A+</text>
<circle cx="793.0" cy="448.8" r="6" fill="#dc2626" stroke="#fff" stroke-width="1.6"><title>R6 50 at 159.050,102.975</title></circle>
<text x="803.0" y="440.8" class="label">R6 50R</text>
<circle cx="320.4" cy="633.7" r="6" fill="#ca8a04" stroke="#fff" stroke-width="1.6"><title>R27 10k at 116.850,119.487</title></circle>
<text x="330.4" y="625.7" class="label">R27 10k</text>
<circle cx="348.9" cy="633.7" r="6" fill="#ca8a04" stroke="#fff" stroke-width="1.6"><title>R29 10k at 119.400,119.487</title></circle>
<text x="358.9" y="625.7" class="label">R29 10k</text>
<circle cx="376.4" cy="633.8" r="6" fill="#ca8a04" stroke="#fff" stroke-width="1.6"><title>R28 10k at 121.850,119.500</title></circle>
<text x="424.4" y="625.8" class="label">R28 10k</text>
<circle cx="690.2" cy="650.6" r="6" fill="#dc2626" stroke="#fff" stroke-width="1.6"><title>R24 0 at 149.875,121.000</title></circle>
<text x="700.2" y="642.6" class="label">R24 0R</text>
<circle cx="734.6" cy="696.3" r="6" fill="#dc2626" stroke="#fff" stroke-width="1.6"><title>J1 RFIN_Coax_Sml at 153.841,125.080</title></circle>
<text x="744.6" y="688.3" class="label">J1 RFIN_Coax_Sml</text>
<circle cx="509.1" cy="732.4" r="6" fill="#b45309" stroke="#fff" stroke-width="1.6"><title>PWR1 LED at 133.700,128.300</title></circle>
<text x="519.1" y="724.4" class="label">PWR1 PWR</text>
<circle cx="534.3" cy="749.4" r="6" fill="#b45309" stroke="#fff" stroke-width="1.6"><title>D5 ESD9B5.0ST5G at 135.950,129.825</title></circle>
<text x="544.3" y="741.4" class="label">D5 ESD9B5.0ST5G</text>
<circle cx="516.9" cy="755.6" r="6" fill="#b45309" stroke="#fff" stroke-width="1.6"><title>D6 ESD9B5.0ST5G at 134.400,130.375</title></circle>
<text x="564.9" y="747.6" class="label">D6 ESD9B5.0ST5G</text>
<circle cx="364.1" cy="819.4" r="6" fill="#ca8a04" stroke="#fff" stroke-width="1.6"><title>EN1 SW_Push at 120.750,136.075</title></circle>
<text x="374.1" y="811.4" class="label">EN1 SW_Push</text>
<circle cx="270.0" cy="820.0" r="6" fill="#ca8a04" stroke="#fff" stroke-width="1.6"><title>BOOT1 SW_Push at 112.350,136.125</title></circle>
<text x="280.0" y="812.0" class="label">BOOT1 SW_Push</text>
<rect x="930" y="105" width="310" height="740" rx="8" fill="#f8fafc" stroke="#94a3b8"/>
<text x="950" y="132" class="label">Spec-derived rows</text>
<text x="950" y="156" class="tiny">J4 (155.6,73.6) RFOUT_DIAMOND</text>
<text x="950" y="171" class="tiny">J3 (164.4,87.5) RFOUT_A-</text>
<text x="950" y="186" class="tiny">J2 (164.4,100.7) RFOUT_A+</text>
<text x="950" y="201" class="tiny">J1 (153.8,125.1) RFIN_Coax_Sml</text>
<text x="950" y="216" class="tiny">J6 (96.3,84.6) ADC_SIGNAL</text>
<text x="950" y="231" class="tiny">U3 (143.9,77.6) GALI-84</text>
<text x="950" y="246" class="tiny">U2 (143.9,86.1) GALI-84</text>
<text x="950" y="261" class="tiny">R7 (158.8,85.5) 50R</text>
<text x="950" y="276" class="tiny">R6 (159.1,103.0) 50R</text>
<text x="950" y="291" class="tiny">D3 (151.7,78.5) D_Small</text>
<text x="950" y="306" class="tiny">D2 (151.7,84.7) D_Small</text>
<text x="950" y="321" class="tiny">R24 (149.9,121.0) 0R</text>
<text x="950" y="336" class="tiny">OLED1 (123.3,85.3) OLED Screen Interface</text>
<text x="950" y="351" class="tiny">5V_SUPP1 (118.5,76.5) Conn_02x03_Odd_Even</text>
<text x="950" y="366" class="tiny">PWR1 (133.7,128.3) PWR</text>
<text x="950" y="381" class="tiny">EN1 (120.8,136.1) SW_Push</text>
<text x="950" y="396" class="tiny">BOOT1 (112.3,136.1) SW_Push</text>
<text x="950" y="411" class="tiny">R27 (116.8,119.5) 10k</text>
<text x="950" y="426" class="tiny">R29 (119.4,119.5) 10k</text>
<text x="950" y="441" class="tiny">R28 (121.8,119.5) 10k</text>
<text x="950" y="456" class="tiny">LED1 (113.3,99.2) LED</text>
<text x="950" y="471" class="tiny">TP1 (110.0,92.6) TestPoint_Probe</text>
<text x="950" y="486" class="tiny">C35 (95.5,92.7) 104</text>
<text x="950" y="501" class="tiny">D4 (94.2,79.1) BPW34</text>
<text x="950" y="516" class="tiny" fill="#991b1b">PHOTODIODE1: not in coordinate source</text>
<text x="950" y="531" class="tiny">D5 (135.9,129.8) ESD9B5.0ST5G</text>
<text x="950" y="546" class="tiny">D6 (134.4,130.4) ESD9B5.0ST5G</text>
<text x="950" y="790" class="label">Notes</text>
<text x="950" y="808" class="tiny">D5/D6 are real spec/BOM ESD footprints, not photo-on</text>
<text x="950" y="823" class="tiny">J5 exists in KiCad as OLED Screen Interface; map lab</text>
<text x="40" y="875" class="foot">Generated from original spec files: plurigrid/UncutGem hardware/PCB/Uncut Gem.kicad_pcb + Uncut Gem-BOM.csv. This is not a photo-invented placement map; current photos remain incoming-condition evidence.</text>
</svg>
